<?xml version="1.0" encoding="UTF-8"?>
<svg width="14px" height="14px" viewBox="0 0 14 14" version="1.1" xmlns="http://www.w3.org/2000/svg" xmlns:xlink="http://www.w3.org/1999/xlink">
    <title>编组 11</title>
    <g id="设计稿" stroke="none" stroke-width="1" fill="none" fill-rule="evenodd">
        <g id="未填写提示" transform="translate(-280.000000, -162.000000)">
            <g id="编组-12" transform="translate(260.000000, 142.000000)">
                <g id="完成项" transform="translate(20.000000, 20.000000)">
                    <circle id="椭圆形" stroke="#4E6EF2" stroke-width="1.75" fill="#4E6EF2" cx="7" cy="7" r="6.125"></circle>
                    <path d="M10.5952287,4.68985054 C10.8045316,4.90978443 10.7990423,5.25685677 10.5828889,5.47006166 L6.44726105,9.54927586 C5.99144612,9.99887307 5.25846496,9.99713584 4.80478631,9.54538305 L2.96339193,7.71180534 C2.74795988,7.4972878 2.74329027,7.14998499 2.95287694,6.92975292 C3.15155801,6.72098037 3.48186443,6.71279962 3.69063697,6.91148069 C3.69654429,6.91710246 3.70231902,6.92286193 3.7079564,6.92875436 L5.25745561,8.54835669 C5.45457778,8.75439715 5.78140567,8.76162685 5.98744613,8.56450468 C5.99078633,8.56130905 5.99408347,8.55806871 5.99733665,8.55478453 L9.83334065,4.68222386 C10.0397187,4.47387909 10.3759179,4.47228472 10.5842626,4.67866272 C10.5879728,4.68233787 10.5916286,4.68606754 10.5952287,4.68985054 Z" id="路径" fill="#FFFFFF" fill-rule="nonzero"></path>
                </g>
            </g>
        </g>
    </g>
</svg>